<svg xmlns="http://www.w3.org/2000/svg" xmlns:xlink="http://www.w3.org/1999/xlink" contentStyleType="text/css" height="635px" preserveAspectRatio="none" style="width:399px;height:635px;background:#FFFFFF;" version="1.1" viewBox="0 0 399 635" width="399px" zoomAndPan="magnify"><defs/><g><ellipse cx="247.91" cy="16" fill="#222222" rx="10" ry="10" style="stroke:#222222;stroke-width:1.0;"/><rect fill="#F1F1F1" height="34.1328" rx="12.5" ry="12.5" style="stroke:#181818;stroke-width:0.5;" width="291.8574" x="101.98" y="67"/><text fill="#000000" font-family="sans-serif" font-size="12" lengthAdjust="spacing" textLength="271.8574" x="111.98" y="88.6016">Get Request Presigned URL and encryption key</text><g id="elem_#5"><polygon fill="#F1F1F1" points="247.91,142.13,259.91,154.13,247.91,166.13,235.91,154.13,247.91,142.13" style="stroke:#181818;stroke-width:0.5;"/></g><rect fill="#F1F1F1" height="34.1328" rx="12.5" ry="12.5" style="stroke:#181818;stroke-width:0.5;" width="168.2188" x="89.8" y="220.13"/><text fill="#000000" font-family="sans-serif" font-size="12" lengthAdjust="spacing" textLength="148.2188" x="99.8" y="241.7316">Create Vault transit client</text><rect fill="#F1F1F1" height="34.1328" rx="12.5" ry="12.5" style="stroke:#181818;stroke-width:0.5;" width="141.6641" x="103.08" y="295.27"/><text fill="#000000" font-family="sans-serif" font-size="12" lengthAdjust="spacing" textLength="121.6641" x="113.08" y="316.8716">Create AWS s3 Client</text><rect fill="#F1F1F1" height="34.1328" rx="12.5" ry="12.5" style="stroke:#181818;stroke-width:0.5;" width="121.8301" x="112.99" y="370.4"/><text fill="#000000" font-family="sans-serif" font-size="12" lengthAdjust="spacing" textLength="101.8301" x="122.99" y="392.0016">Generate AES Key</text><rect fill="#F1F1F1" height="34.1328" rx="12.5" ry="12.5" style="stroke:#181818;stroke-width:0.5;" width="225.752" x="61.03" y="445.53"/><text fill="#000000" font-family="sans-serif" font-size="12" lengthAdjust="spacing" textLength="205.752" x="71.03" y="467.1316">Encrypt AES Key with transit engine</text><rect fill="#F1F1F1" height="34.1328" rx="12.5" ry="12.5" style="stroke:#181818;stroke-width:0.5;" width="187.8828" x="79.97" y="520.66"/><text fill="#000000" font-family="sans-serif" font-size="12" lengthAdjust="spacing" textLength="167.8828" x="89.97" y="542.2616">Generate AWS Presigned URL</text><rect fill="#F1F1F1" height="34.1328" rx="12.5" ry="12.5" style="stroke:#181818;stroke-width:0.5;" width="333.8164" x="7" y="595.8"/><text fill="#000000" font-family="sans-serif" font-size="12" lengthAdjust="spacing" textLength="313.8164" x="17" y="617.4016">Return Presigned URL, AES key and encrypted AES key</text><rect fill="#F1F1F1" height="34.1328" rx="12.5" ry="12.5" style="stroke:#181818;stroke-width:0.5;" width="85.127" x="278.34" y="220.13"/><text fill="#000000" font-family="sans-serif" font-size="12" lengthAdjust="spacing" textLength="65.127" x="288.34" y="241.7316">Return 401</text><!--link start to Get Request Presigned URL and encryption key--><g id="link_start_Get Request Presigned URL and encryption key"><path d="M247.91,26.47 C247.91,36.96 247.91,48.06 247.91,60.73 " fill="none" id="start-to-Get Request Presigned URL and encryption key" style="stroke:#181818;stroke-width:1.0;"/><polygon fill="#181818" points="247.91,66.73,251.91,57.73,247.91,61.73,243.91,57.73,247.91,66.73" style="stroke:#181818;stroke-width:1.0;"/></g><!--link Get Request Presigned URL and encryption key to #5--><g id="link_Get Request Presigned URL and encryption key_#5"><path d="M247.91,101.54 C247.91,113.98 247.91,124.71 247.91,135.71 " fill="none" id="Get Request Presigned URL and encryption key-to-#5" style="stroke:#181818;stroke-width:1.0;"/><polygon fill="#181818" points="247.91,141.71,251.91,132.71,247.91,136.71,243.91,132.71,247.91,141.71" style="stroke:#181818;stroke-width:1.0;"/><text fill="#000000" font-family="sans-serif" font-size="11" lengthAdjust="spacing" textLength="157.9478" x="69.9405" y="135.5227">ServiceAccount Token is valid</text></g><!--link #5 to Create Vault transit client--><g id="link_#5_Create Vault transit client"><path d="M242.35,161.23 C231.12,173.52 209.466,197.2495 192.946,215.3395 " fill="none" id="#5-to-Create Vault transit client" style="stroke:#181818;stroke-width:1.0;"/><polygon fill="#181818" points="188.9,219.77,197.9227,215.8215,192.2717,216.0779,192.0153,210.4268,188.9,219.77" style="stroke:#181818;stroke-width:1.0;"/><text fill="#000000" font-family="sans-serif" font-size="11" lengthAdjust="spacing" textLength="21.5703" x="218.54" y="197.7648">true</text></g><!--link Create Vault transit client to Create AWS s3 Client--><g id="link_Create Vault transit client_Create AWS s3 Client"><path d="M173.91,254.43 C173.91,266.47 173.91,276.81 173.91,288.89 " fill="none" id="Create Vault transit client-to-Create AWS s3 Client" style="stroke:#181818;stroke-width:1.0;"/><polygon fill="#181818" points="173.91,294.89,177.91,285.89,173.91,289.89,169.91,285.89,173.91,294.89" style="stroke:#181818;stroke-width:1.0;"/></g><!--link Create AWS s3 Client to Generate AES Key--><g id="link_Create AWS s3 Client_Generate AES Key"><path d="M173.91,329.56 C173.91,341.6 173.91,351.94 173.91,364.03 " fill="none" id="Create AWS s3 Client-to-Generate AES Key" style="stroke:#181818;stroke-width:1.0;"/><polygon fill="#181818" points="173.91,370.03,177.91,361.03,173.91,365.03,169.91,361.03,173.91,370.03" style="stroke:#181818;stroke-width:1.0;"/></g><!--link Generate AES Key to Encrypt AES Key with transit engine--><g id="link_Generate AES Key_Encrypt AES Key with transit engine"><path d="M173.91,404.7 C173.91,416.73 173.91,427.08 173.91,439.16 " fill="none" id="Generate AES Key-to-Encrypt AES Key with transit engine" style="stroke:#181818;stroke-width:1.0;"/><polygon fill="#181818" points="173.91,445.16,177.91,436.16,173.91,440.16,169.91,436.16,173.91,445.16" style="stroke:#181818;stroke-width:1.0;"/></g><!--link Encrypt AES Key with transit engine to Generate AWS Presigned URL--><g id="link_Encrypt AES Key with transit engine_Generate AWS Presigned URL"><path d="M173.91,479.83 C173.91,491.86 173.91,502.21 173.91,514.29 " fill="none" id="Encrypt AES Key with transit engine-to-Generate AWS Presigned URL" style="stroke:#181818;stroke-width:1.0;"/><polygon fill="#181818" points="173.91,520.29,177.91,511.29,173.91,515.29,169.91,511.29,173.91,520.29" style="stroke:#181818;stroke-width:1.0;"/></g><!--link Generate AWS Presigned URL to Return Presigned URL, AES key and encrypted AES key--><g id="link_Generate AWS Presigned URL_Return Presigned URL, AES key and encrypted AES key"><path d="M173.91,554.96 C173.91,567 173.91,577.34 173.91,589.43 " fill="none" id="Generate AWS Presigned URL-to-Return Presigned URL, AES key and encrypted AES key" style="stroke:#181818;stroke-width:1.0;"/><polygon fill="#181818" points="173.91,595.43,177.91,586.43,173.91,590.43,169.91,586.43,173.91,595.43" style="stroke:#181818;stroke-width:1.0;"/></g><!--link #5 to Return 401--><g id="link_#5_Return 401"><path d="M253.4,161.23 C264.47,173.52 285.815,197.2213 302.105,215.3113 " fill="none" id="#5-to-Return 401" style="stroke:#181818;stroke-width:1.0;"/><polygon fill="#181818" points="306.12,219.77,303.0699,210.4053,302.7742,216.0544,297.125,215.7587,306.12,219.77" style="stroke:#181818;stroke-width:1.0;"/><text fill="#000000" font-family="sans-serif" font-size="11" lengthAdjust="spacing" textLength="25.0347" x="287.6" y="197.7648">false</text></g><!--SRC=[RP1FIyD04CNl-HIFFQbOKFGib59wq8Ca_Zb83ylcfHqQ9hexM-ctDsrZCE1jUB_7ctbpSNM9sUm1RaL3oQ_CP7YEJB9HrdWjd-2r1ZN4mwT9fzZnu8f26hYASI-1yn2wh8QNRaU59EnzAxM3RQb5WMFyXyNCDTmYqXlnvdDhiEWrYI6qGZLtTewU-Nk5T8V55AweZ2UyhF1ul6G0o_E1lpg-nRRZ1kf6bF-4z3icNKTBISjHf_3w5DxN__kH7WsgAzWc3dqRty_hCUV-vhR7Malp0m00]--></g></svg>