<svg xmlns="http://www.w3.org/2000/svg" xmlns:xlink="http://www.w3.org/1999/xlink" contentStyleType="text/css" height="337px" preserveAspectRatio="none" style="width:328px;height:337px;background:#FFFFFF;" version="1.1" viewBox="0 0 328 337" width="328px" zoomAndPan="magnify"><title>heap dump companion</title><defs/><g><text fill="#000000" font-family="sans-serif" font-size="14" font-weight="bold" lengthAdjust="spacing" textLength="164.8145" x="80.123" y="33.5352">heap dump companion</text><ellipse cx="164.0303" cy="57.4883" fill="#222222" rx="10" ry="10" style="stroke:#222222;stroke-width:1.0;"/><rect fill="#F1F1F1" height="34.1328" rx="12.5" ry="12.5" style="stroke:#181818;stroke-width:0.5;" width="164.4277" x="81.8164" y="87.4883"/><text fill="#000000" font-family="sans-serif" font-size="12" lengthAdjust="spacing" textLength="144.4277" x="91.8164" y="109.0898">create vault transit client</text><rect fill="#F1F1F1" height="34.1328" rx="12.5" ry="12.5" style="stroke:#181818;stroke-width:0.5;" width="306.0605" x="11" y="141.6211"/><text fill="#000000" font-family="sans-serif" font-size="12" lengthAdjust="spacing" textLength="286.0605" x="21" y="163.2227">decrypt aes key with transit client and tenant key</text><rect fill="#F1F1F1" height="34.1328" rx="12.5" ry="12.5" style="stroke:#181818;stroke-width:0.5;" width="133.2676" x="97.3965" y="195.7539"/><text fill="#000000" font-family="sans-serif" font-size="12" lengthAdjust="spacing" textLength="113.2676" x="107.3965" y="217.3555">decrypt heap dump</text><rect fill="#F1F1F1" height="34.1328" rx="12.5" ry="12.5" style="stroke:#181818;stroke-width:0.5;" width="162.0664" x="82.9971" y="249.8867"/><text fill="#000000" font-family="sans-serif" font-size="12" lengthAdjust="spacing" textLength="142.0664" x="92.9971" y="271.4883">write heap dump to disk</text><ellipse cx="164.0303" cy="315.0195" fill="none" rx="11" ry="11" style="stroke:#222222;stroke-width:1.0;"/><ellipse cx="164.0303" cy="315.0195" fill="#222222" rx="6" ry="6" style="stroke:#222222;stroke-width:1.0;"/><line style="stroke:#181818;stroke-width:1.0;" x1="164.0303" x2="164.0303" y1="67.4883" y2="87.4883"/><polygon fill="#181818" points="160.0303,77.4883,164.0303,87.4883,168.0303,77.4883,164.0303,81.4883" style="stroke:#181818;stroke-width:1.0;"/><line style="stroke:#181818;stroke-width:1.0;" x1="164.0303" x2="164.0303" y1="121.6211" y2="141.6211"/><polygon fill="#181818" points="160.0303,131.6211,164.0303,141.6211,168.0303,131.6211,164.0303,135.6211" style="stroke:#181818;stroke-width:1.0;"/><line style="stroke:#181818;stroke-width:1.0;" x1="164.0303" x2="164.0303" y1="175.7539" y2="195.7539"/><polygon fill="#181818" points="160.0303,185.7539,164.0303,195.7539,168.0303,185.7539,164.0303,189.7539" style="stroke:#181818;stroke-width:1.0;"/><line style="stroke:#181818;stroke-width:1.0;" x1="164.0303" x2="164.0303" y1="229.8867" y2="249.8867"/><polygon fill="#181818" points="160.0303,239.8867,164.0303,249.8867,168.0303,239.8867,164.0303,243.8867" style="stroke:#181818;stroke-width:1.0;"/><line style="stroke:#181818;stroke-width:1.0;" x1="164.0303" x2="164.0303" y1="284.0195" y2="304.0195"/><polygon fill="#181818" points="160.0303,294.0195,164.0303,304.0195,168.0303,294.0195,164.0303,298.0195" style="stroke:#181818;stroke-width:1.0;"/><!--SRC=[NOv12eKm44FtFKNEeQSPsW47wtHee-BjxUeZVnV22taqLiMc4YZd4SZj275hdjAWTAObTnKgBZahmIu-ZCZLrBccfMZkJn2Y0xi-k8tR7mNn0ghBZ1FvZ7wtixkxyIl2Xc9ZNwT6Y_G2]--></g></svg>