<svg xmlns="http://www.w3.org/2000/svg" xmlns:xlink="http://www.w3.org/1999/xlink" contentStyleType="text/css" height="352px" preserveAspectRatio="none" style="width:861px;height:352px;background:#FFFFFF;" version="1.1" viewBox="0 0 861 352" width="861px" zoomAndPan="magnify"><defs/><g><line style="stroke:#181818;stroke-width:0.5;stroke-dasharray:5.0,5.0;" x1="50" x2="50" y1="36.4883" y2="316.9727"/><line style="stroke:#181818;stroke-width:0.5;stroke-dasharray:5.0,5.0;" x1="299.6621" x2="299.6621" y1="36.4883" y2="316.9727"/><line style="stroke:#181818;stroke-width:0.5;stroke-dasharray:5.0,5.0;" x1="551.9819" x2="551.9819" y1="36.4883" y2="316.9727"/><line style="stroke:#181818;stroke-width:0.5;stroke-dasharray:5.0,5.0;" x1="777.7158" x2="777.7158" y1="36.4883" y2="316.9727"/><line style="stroke:#181818;stroke-width:0.5;stroke-dasharray:5.0,5.0;" x1="833.5723" x2="833.5723" y1="36.4883" y2="316.9727"/><rect fill="#E2E2F0" height="30.4883" rx="2.5" ry="2.5" style="stroke:#181818;stroke-width:0.5;" width="90.8496" x="5" y="5"/><text fill="#000000" font-family="sans-serif" font-size="14" lengthAdjust="spacing" textLength="76.8496" x="12" y="25.5352">Application</text><rect fill="#E2E2F0" height="30.4883" rx="2.5" ry="2.5" style="stroke:#181818;stroke-width:0.5;" width="90.8496" x="5" y="315.9727"/><text fill="#000000" font-family="sans-serif" font-size="14" lengthAdjust="spacing" textLength="76.8496" x="12" y="336.5078">Application</text><rect fill="#E2E2F0" height="30.4883" rx="2.5" ry="2.5" style="stroke:#181818;stroke-width:0.5;" width="103.5166" x="248.6621" y="5"/><text fill="#000000" font-family="sans-serif" font-size="14" lengthAdjust="spacing" textLength="89.5166" x="255.6621" y="25.5352">NotifySidecar</text><rect fill="#E2E2F0" height="30.4883" rx="2.5" ry="2.5" style="stroke:#181818;stroke-width:0.5;" width="103.5166" x="248.6621" y="315.9727"/><text fill="#000000" font-family="sans-serif" font-size="14" lengthAdjust="spacing" textLength="89.5166" x="255.6621" y="336.5078">NotifySidecar</text><rect fill="#E2E2F0" height="30.4883" rx="2.5" ry="2.5" style="stroke:#181818;stroke-width:0.5;" width="137.0195" x="483.9819" y="5"/><text fill="#000000" font-family="sans-serif" font-size="14" lengthAdjust="spacing" textLength="123.0195" x="490.9819" y="25.5352">HeapDumpService</text><rect fill="#E2E2F0" height="30.4883" rx="2.5" ry="2.5" style="stroke:#181818;stroke-width:0.5;" width="137.0195" x="483.9819" y="315.9727"/><text fill="#000000" font-family="sans-serif" font-size="14" lengthAdjust="spacing" textLength="123.0195" x="490.9819" y="336.5078">HeapDumpService</text><rect fill="#E2E2F0" height="30.4883" rx="2.5" ry="2.5" style="stroke:#181818;stroke-width:0.5;" width="48.8564" x="753.7158" y="5"/><text fill="#000000" font-family="sans-serif" font-size="14" lengthAdjust="spacing" textLength="34.8564" x="760.7158" y="25.5352">Vault</text><rect fill="#E2E2F0" height="30.4883" rx="2.5" ry="2.5" style="stroke:#181818;stroke-width:0.5;" width="48.8564" x="753.7158" y="315.9727"/><text fill="#000000" font-family="sans-serif" font-size="14" lengthAdjust="spacing" textLength="34.8564" x="760.7158" y="336.5078">Vault</text><rect fill="#E2E2F0" height="30.4883" rx="2.5" ry="2.5" style="stroke:#181818;stroke-width:0.5;" width="43.1758" x="812.5723" y="5"/><text fill="#000000" font-family="sans-serif" font-size="14" lengthAdjust="spacing" textLength="29.1758" x="819.5723" y="25.5352">AWS</text><rect fill="#E2E2F0" height="30.4883" rx="2.5" ry="2.5" style="stroke:#181818;stroke-width:0.5;" width="43.1758" x="812.5723" y="315.9727"/><text fill="#000000" font-family="sans-serif" font-size="14" lengthAdjust="spacing" textLength="29.1758" x="819.5723" y="336.5078">AWS</text><polygon fill="#181818" points="288.4204,63.7988,298.4204,67.7988,288.4204,71.7988,292.4204,67.7988" style="stroke:#181818;stroke-width:1.0;"/><line style="stroke:#181818;stroke-width:1.0;" x1="50.4248" x2="294.4204" y1="67.7988" y2="67.7988"/><text fill="#000000" font-family="sans-serif" font-size="13" lengthAdjust="spacing" textLength="225.9956" x="57.4248" y="63.0566">writes heap dump in shared volume</text><polygon fill="#181818" points="540.4917,93.1094,550.4917,97.1094,540.4917,101.1094,544.4917,97.1094" style="stroke:#181818;stroke-width:1.0;"/><line style="stroke:#181818;stroke-width:1.0;" x1="300.4204" x2="546.4917" y1="97.1094" y2="97.1094"/><text fill="#000000" font-family="sans-serif" font-size="13" lengthAdjust="spacing" textLength="127.1245" x="307.4204" y="92.3672">Request Upload URL</text><polygon fill="#181818" points="766.144,122.4199,776.144,126.4199,766.144,130.4199,770.144,126.4199" style="stroke:#181818;stroke-width:1.0;"/><line style="stroke:#181818;stroke-width:1.0;" x1="552.4917" x2="772.144" y1="126.4199" y2="126.4199"/><text fill="#000000" font-family="sans-serif" font-size="13" lengthAdjust="spacing" textLength="201.6523" x="559.4917" y="121.6777">Encrypt AES Key with tenant key</text><polygon fill="#181818" points="822.1602,151.7305,832.1602,155.7305,822.1602,159.7305,826.1602,155.7305" style="stroke:#181818;stroke-width:1.0;"/><line style="stroke:#181818;stroke-width:1.0;" x1="552.4917" x2="828.1602" y1="155.7305" y2="155.7305"/><text fill="#000000" font-family="sans-serif" font-size="13" lengthAdjust="spacing" textLength="234.8062" x="559.4917" y="150.9883">Generate PreSigned upload URL to S3</text><polygon fill="#181818" points="311.4204,181.041,301.4204,185.041,311.4204,189.041,307.4204,185.041" style="stroke:#181818;stroke-width:1.0;"/><line style="stroke:#181818;stroke-width:1.0;" x1="305.4204" x2="551.4917" y1="185.041" y2="185.041"/><text fill="#000000" font-family="sans-serif" font-size="13" lengthAdjust="spacing" textLength="228.0713" x="317.4204" y="180.2988">Returns Key, Encrypted Key and URL</text><line style="stroke:#181818;stroke-width:1.0;" x1="300.4204" x2="342.4204" y1="214.3516" y2="214.3516"/><line style="stroke:#181818;stroke-width:1.0;" x1="342.4204" x2="342.4204" y1="214.3516" y2="227.3516"/><line style="stroke:#181818;stroke-width:1.0;" x1="301.4204" x2="342.4204" y1="227.3516" y2="227.3516"/><polygon fill="#181818" points="311.4204,223.3516,301.4204,227.3516,311.4204,231.3516,307.4204,227.3516" style="stroke:#181818;stroke-width:1.0;"/><text fill="#000000" font-family="sans-serif" font-size="13" lengthAdjust="spacing" textLength="132.063" x="307.4204" y="209.6094">Encrypts Heap Dump</text><polygon fill="#181818" points="822.1602,252.6621,832.1602,256.6621,822.1602,260.6621,826.1602,256.6621" style="stroke:#181818;stroke-width:1.0;"/><line style="stroke:#181818;stroke-width:1.0;" x1="300.4204" x2="828.1602" y1="256.6621" y2="256.6621"/><text fill="#000000" font-family="sans-serif" font-size="13" lengthAdjust="spacing" textLength="377.3174" x="307.4204" y="251.9199">Uploads encrypted heap dump and encrypted AES Key to S3</text><line style="stroke:#181818;stroke-width:1.0;" x1="50.4248" x2="92.4248" y1="285.9727" y2="285.9727"/><line style="stroke:#181818;stroke-width:1.0;" x1="92.4248" x2="92.4248" y1="285.9727" y2="298.9727"/><line style="stroke:#181818;stroke-width:1.0;" x1="51.4248" x2="92.4248" y1="298.9727" y2="298.9727"/><polygon fill="#181818" points="61.4248,294.9727,51.4248,298.9727,61.4248,302.9727,57.4248,298.9727" style="stroke:#181818;stroke-width:1.0;"/><text fill="#000000" font-family="sans-serif" font-size="13" lengthAdjust="spacing" textLength="70.6558" x="57.4248" y="281.2305">Terminates</text><!--SRC=[RL5BJiCm4Dtd5Ey0i6Bd1L8aAf10g8efhAra82CIszZZLhazTaDRcdPfw_sdzdxWrWWxYzjxl3hXpqbpHwq92hl0GX4z6OykZHvi4NiJgCFM3McawenG59uozY53DOKjjwJGq4-YADZumPaEc-QbMc0AxTsaGHHMjWsJ5zGhZMUQi6Ff8MID5NpJT8rPVsY5Hx8KZ13MWJH_sHmm7VqW3lhk6dTHjo59mSRYV7E8afLA46Fdw1Tz5n9_hBZV0SNkah9FFCyHGKURqyh5xFH_s69kKPyVxDzJuOt2o3RF4AjV]--></g></svg>