<svg xmlns="http://www.w3.org/2000/svg" xmlns:xlink="http://www.w3.org/1999/xlink" contentStyleType="text/css" height="663px" preserveAspectRatio="none" style="width:494px;height:663px;background:#FFFFFF;" version="1.1" viewBox="0 0 494 663" width="494px" zoomAndPan="magnify"><title>Notify Sidecar</title><defs/><g><text fill="#000000" font-family="sans-serif" font-size="14" font-weight="bold" lengthAdjust="spacing" textLength="100.584" x="195.6025" y="33.5352">Notify Sidecar</text><ellipse cx="340.5598" cy="57.4883" fill="#222222" rx="10" ry="10" style="stroke:#222222;stroke-width:1.0;"/><rect fill="#F1F1F1" height="34.1328" rx="12.5" ry="12.5" style="stroke:#181818;stroke-width:0.5;" width="96.9043" x="292.1077" y="87.4883"/><text fill="#000000" font-family="sans-serif" font-size="12" lengthAdjust="spacing" textLength="76.9043" x="302.1077" y="109.0898">Serve Metrics</text><polygon fill="#F1F1F1" points="294.2583,185.6211,386.8613,185.6211,398.8613,197.6211,386.8613,209.6211,294.2583,209.6211,282.2583,197.6211,294.2583,185.6211" style="stroke:#181818;stroke-width:0.5;"/><text fill="#000000" font-family="sans-serif" font-size="11" lengthAdjust="spacing" textLength="92.603" x="294.2583" y="201.7783">File being written</text><text fill="#000000" font-family="sans-serif" font-size="11" lengthAdjust="spacing" textLength="17.4829" x="264.7754" y="195.3008">yes</text><text fill="#000000" font-family="sans-serif" font-size="11" lengthAdjust="spacing" textLength="13.5835" x="398.8613" y="195.3008">no</text><rect fill="#F1F1F1" height="34.1328" rx="12.5" ry="12.5" style="stroke:#181818;stroke-width:0.5;" width="104.375" x="196.5679" y="219.6211"/><text fill="#000000" font-family="sans-serif" font-size="12" lengthAdjust="spacing" textLength="84.375" x="206.5679" y="241.2227">Check file size</text><polygon fill="#F1F1F1" points="188.5991,273.7539,308.9116,273.7539,320.9116,285.7539,308.9116,297.7539,188.5991,297.7539,176.5991,285.7539,188.5991,273.7539" style="stroke:#181818;stroke-width:0.5;"/><text fill="#000000" font-family="sans-serif" font-size="11" lengthAdjust="spacing" textLength="120.3125" x="188.5991" y="289.9111">File bigger than 16 MB</text><text fill="#000000" font-family="sans-serif" font-size="11" lengthAdjust="spacing" textLength="17.4829" x="159.1162" y="283.4336">yes</text><text fill="#000000" font-family="sans-serif" font-size="11" lengthAdjust="spacing" textLength="13.5835" x="320.9116" y="283.4336">no</text><rect fill="#F1F1F1" height="34.1328" rx="12.5" ry="12.5" style="stroke:#181818;stroke-width:0.5;" width="230.041" x="45" y="307.7539"/><text fill="#000000" font-family="sans-serif" font-size="12" lengthAdjust="spacing" textLength="210.041" x="55" y="329.3555">wait until write operation is finished</text><rect fill="#F1F1F1" height="34.1328" rx="12.5" ry="12.5" style="stroke:#181818;stroke-width:0.5;" width="222.1191" x="48.9609" y="361.8867"/><text fill="#000000" font-family="sans-serif" font-size="12" lengthAdjust="spacing" textLength="202.1191" x="58.9609" y="383.4883">Request presigned url and AES key</text><rect fill="#F1F1F1" height="34.1328" rx="12.5" ry="12.5" style="stroke:#181818;stroke-width:0.5;" width="135.7871" x="92.127" y="427.5195"/><text fill="#000000" font-family="sans-serif" font-size="12" lengthAdjust="spacing" textLength="115.7871" x="102.127" y="449.1211">Encrypt Heap Dump</text><rect fill="#F1F1F1" height="34.1328" rx="12.5" ry="12.5" style="stroke:#181818;stroke-width:0.5;" width="228.1484" x="45.9463" y="481.6523"/><text fill="#000000" font-family="sans-serif" font-size="12" lengthAdjust="spacing" textLength="208.1484" x="55.9463" y="503.2539">Upload encrypted data to S3 bucket</text><rect fill="#F1F1F1" height="34.1328" rx="12.5" ry="12.5" style="stroke:#181818;stroke-width:0.5;" width="96.623" x="111.709" y="535.7852"/><text fill="#000000" font-family="sans-serif" font-size="12" lengthAdjust="spacing" textLength="76.623" x="121.709" y="557.3867">Cleanup data</text><rect fill="#F1F1F1" height="34.1328" rx="12.5" ry="12.5" style="stroke:#181818;stroke-width:0.5;" width="84.8984" x="295.041" y="307.7539"/><text fill="#000000" font-family="sans-serif" font-size="12" lengthAdjust="spacing" textLength="64.8984" x="305.041" y="329.3555">remove file</text><polygon fill="#F1F1F1" points="248.7554,575.918,260.7554,587.918,248.7554,599.918,236.7554,587.918,248.7554,575.918" style="stroke:#181818;stroke-width:0.5;"/><rect fill="#F1F1F1" height="34.1328" rx="12.5" ry="12.5" style="stroke:#181818;stroke-width:0.5;" width="44.8496" x="409.9395" y="219.6211"/><text fill="#000000" font-family="sans-serif" font-size="12" lengthAdjust="spacing" textLength="24.8496" x="419.9395" y="241.2227">Wait</text><polygon fill="#F1F1F1" points="340.5598,605.918,352.5598,617.918,340.5598,629.918,328.5598,617.918,340.5598,605.918" style="stroke:#181818;stroke-width:0.5;"/><polygon fill="#F1F1F1" points="298.3296,141.6211,382.79,141.6211,394.79,153.6211,382.79,165.6211,298.3296,165.6211,286.3296,153.6211,298.3296,141.6211" style="stroke:#181818;stroke-width:0.5;"/><text fill="#000000" font-family="sans-serif" font-size="11" lengthAdjust="spacing" textLength="84.4604" x="298.3296" y="157.7783">Enter main loop</text><text fill="#000000" font-family="sans-serif" font-size="11" lengthAdjust="spacing" textLength="52.3574" x="233.9722" y="151.3008">shutdown</text><ellipse cx="24" cy="196.6211" fill="none" rx="11" ry="11" style="stroke:#222222;stroke-width:1.0;"/><ellipse cx="24" cy="196.6211" fill="#222222" rx="6" ry="6" style="stroke:#222222;stroke-width:1.0;"/><line style="stroke:#181818;stroke-width:1.0;" x1="340.5598" x2="340.5598" y1="67.4883" y2="87.4883"/><polygon fill="#181818" points="336.5598,77.4883,340.5598,87.4883,344.5598,77.4883,340.5598,81.4883" style="stroke:#181818;stroke-width:1.0;"/><line style="stroke:#181818;stroke-width:1.0;" x1="160.0205" x2="160.0205" y1="341.8867" y2="361.8867"/><polygon fill="#181818" points="156.0205,351.8867,160.0205,361.8867,164.0205,351.8867,160.0205,355.8867" style="stroke:#181818;stroke-width:1.0;"/><line style="stroke:#181818;stroke-width:1.0;" x1="160.0205" x2="160.0205" y1="396.0195" y2="427.5195"/><polygon fill="#181818" points="156.0205,417.5195,160.0205,427.5195,164.0205,417.5195,160.0205,421.5195" style="stroke:#181818;stroke-width:1.0;"/><line style="stroke:#181818;stroke-width:1.0;" x1="160.0205" x2="160.0205" y1="461.6523" y2="481.6523"/><polygon fill="#181818" points="156.0205,471.6523,160.0205,481.6523,164.0205,471.6523,160.0205,475.6523" style="stroke:#181818;stroke-width:1.0;"/><line style="stroke:#181818;stroke-width:1.0;" x1="160.0205" x2="160.0205" y1="515.7852" y2="535.7852"/><polygon fill="#181818" points="156.0205,525.7852,160.0205,535.7852,164.0205,525.7852,160.0205,529.7852" style="stroke:#181818;stroke-width:1.0;"/><line style="stroke:#181818;stroke-width:1.0;" x1="176.5991" x2="160.0205" y1="285.7539" y2="285.7539"/><line style="stroke:#181818;stroke-width:1.0;" x1="160.0205" x2="160.0205" y1="285.7539" y2="307.7539"/><polygon fill="#181818" points="156.0205,297.7539,160.0205,307.7539,164.0205,297.7539,160.0205,301.7539" style="stroke:#181818;stroke-width:1.0;"/><line style="stroke:#181818;stroke-width:1.0;" x1="320.9116" x2="337.4902" y1="285.7539" y2="285.7539"/><line style="stroke:#181818;stroke-width:1.0;" x1="337.4902" x2="337.4902" y1="285.7539" y2="307.7539"/><polygon fill="#181818" points="333.4902,297.7539,337.4902,307.7539,341.4902,297.7539,337.4902,301.7539" style="stroke:#181818;stroke-width:1.0;"/><line style="stroke:#181818;stroke-width:1.0;" x1="160.0205" x2="160.0205" y1="569.918" y2="587.918"/><line style="stroke:#181818;stroke-width:1.0;" x1="160.0205" x2="236.7554" y1="587.918" y2="587.918"/><polygon fill="#181818" points="226.7554,583.918,236.7554,587.918,226.7554,591.918,230.7554,587.918" style="stroke:#181818;stroke-width:1.0;"/><line style="stroke:#181818;stroke-width:1.0;" x1="337.4902" x2="337.4902" y1="341.8867" y2="587.918"/><line style="stroke:#181818;stroke-width:1.0;" x1="337.4902" x2="260.7554" y1="587.918" y2="587.918"/><polygon fill="#181818" points="270.7554,583.918,260.7554,587.918,270.7554,591.918,266.7554,587.918" style="stroke:#181818;stroke-width:1.0;"/><line style="stroke:#181818;stroke-width:1.0;" x1="248.7554" x2="248.7554" y1="253.7539" y2="273.7539"/><polygon fill="#181818" points="244.7554,263.7539,248.7554,273.7539,252.7554,263.7539,248.7554,267.7539" style="stroke:#181818;stroke-width:1.0;"/><line style="stroke:#181818;stroke-width:1.0;" x1="282.2583" x2="248.7554" y1="197.6211" y2="197.6211"/><line style="stroke:#181818;stroke-width:1.0;" x1="248.7554" x2="248.7554" y1="197.6211" y2="219.6211"/><polygon fill="#181818" points="244.7554,209.6211,248.7554,219.6211,252.7554,209.6211,248.7554,213.6211" style="stroke:#181818;stroke-width:1.0;"/><line style="stroke:#181818;stroke-width:1.0;" x1="398.8613" x2="432.3643" y1="197.6211" y2="197.6211"/><line style="stroke:#181818;stroke-width:1.0;" x1="432.3643" x2="432.3643" y1="197.6211" y2="219.6211"/><polygon fill="#181818" points="428.3643,209.6211,432.3643,219.6211,436.3643,209.6211,432.3643,213.6211" style="stroke:#181818;stroke-width:1.0;"/><line style="stroke:#181818;stroke-width:1.0;" x1="248.7554" x2="248.7554" y1="599.918" y2="617.918"/><line style="stroke:#181818;stroke-width:1.0;" x1="248.7554" x2="328.5598" y1="617.918" y2="617.918"/><polygon fill="#181818" points="318.5598,613.918,328.5598,617.918,318.5598,621.918,322.5598,617.918" style="stroke:#181818;stroke-width:1.0;"/><line style="stroke:#181818;stroke-width:1.0;" x1="432.3643" x2="432.3643" y1="253.7539" y2="617.918"/><line style="stroke:#181818;stroke-width:1.0;" x1="432.3643" x2="352.5598" y1="617.918" y2="617.918"/><polygon fill="#181818" points="362.5598,613.918,352.5598,617.918,362.5598,621.918,358.5598,617.918" style="stroke:#181818;stroke-width:1.0;"/><line style="stroke:#181818;stroke-width:1.0;" x1="340.5598" x2="340.5598" y1="165.6211" y2="185.6211"/><polygon fill="#181818" points="336.5598,175.6211,340.5598,185.6211,344.5598,175.6211,340.5598,179.6211" style="stroke:#181818;stroke-width:1.0;"/><line style="stroke:#181818;stroke-width:1.0;" x1="340.5598" x2="340.5598" y1="629.918" y2="639.918"/><line style="stroke:#181818;stroke-width:1.0;" x1="340.5598" x2="468.7891" y1="639.918" y2="639.918"/><polygon fill="#181818" points="464.7891,407.5195,468.7891,397.5195,472.7891,407.5195,468.7891,403.5195" style="stroke:#181818;stroke-width:1.0;"/><line style="stroke:#181818;stroke-width:1.0;" x1="468.7891" x2="468.7891" y1="153.6211" y2="639.918"/><line style="stroke:#181818;stroke-width:1.0;" x1="468.7891" x2="394.79" y1="153.6211" y2="153.6211"/><polygon fill="#181818" points="404.79,149.6211,394.79,153.6211,404.79,157.6211,400.79,153.6211" style="stroke:#181818;stroke-width:1.0;"/><line style="stroke:#181818;stroke-width:1.0;" x1="286.3296" x2="24" y1="153.6211" y2="153.6211"/><line style="stroke:#181818;stroke-width:1.0;" x1="24" x2="24" y1="153.6211" y2="185.6211"/><polygon fill="#181818" points="20,175.6211,24,185.6211,28,175.6211,24,179.6211" style="stroke:#181818;stroke-width:1.0;"/><line style="stroke:#181818;stroke-width:1.0;" x1="340.5598" x2="340.5598" y1="121.6211" y2="141.6211"/><polygon fill="#181818" points="336.5598,131.6211,340.5598,141.6211,344.5598,131.6211,340.5598,135.6211" style="stroke:#181818;stroke-width:1.0;"/><!--SRC=[NP4nJyCm48Lt_uetDYD2OcWcA4LToa24cDtuafpgderz8Gg_7gUD169zxtjdtpjbzOJNeDpDQDXHQvCnMMrIOxODfI_2aJHncsip3LpWpLwK4YwM1Jw4M1dki7bPh1Enz9WIgv9Kq844cvboPO3jRg3sZ6xXCdzJNRJV8FTzcQc35TmzuFZqBrpYasN5ACh- -W0XH4fMEGWubx72UI1Nt-0t-XmfAsAYpBsGmvWyh3WyxXkSQLwvlRHfZee3sOZdyH9N_JtwO1tePfUuisgX0SqzJcDx9bt1dIShOxpwDubyBXr9MB-Tw19AXylQYq_Yk3D_cUr7MQmsgo5kBJaFexemIRLS8yGV]--></g></svg>